<mxfile host="app.diagrams.net" agent="Mozilla/5.0 (Windows NT 10.0; Win64; x64) AppleWebKit/537.36 (KHTML, like Gecko) Chrome/131.0.0.0 Safari/537.36" version="24.9.2">
  <diagram name="Page-1" id="vyGXIA79MHlj44jtNxEa">
    <mxGraphModel dx="2178" dy="249" grid="1" gridSize="10" guides="1" tooltips="1" connect="1" arrows="1" fold="1" page="1" pageScale="1" pageWidth="850" pageHeight="1100" math="0" shadow="0">
      <root>
        <mxCell id="0" />
        <mxCell id="1" parent="0" />
        <mxCell id="NIufxUbHIXF32C0Od_Hi-1" value="PELICULA" style="rounded=0;whiteSpace=wrap;html=1;" parent="1" vertex="1">
          <mxGeometry x="-740" y="350" width="120" height="60" as="geometry" />
        </mxCell>
        <mxCell id="NIufxUbHIXF32C0Od_Hi-2" value="ACTOR" style="rounded=0;whiteSpace=wrap;html=1;" parent="1" vertex="1">
          <mxGeometry x="-740" y="690" width="120" height="60" as="geometry" />
        </mxCell>
        <mxCell id="NIufxUbHIXF32C0Od_Hi-4" value="DIRECTOR" style="rounded=0;whiteSpace=wrap;html=1;" parent="1" vertex="1">
          <mxGeometry x="-220" y="350" width="120" height="60" as="geometry" />
        </mxCell>
        <mxCell id="NIufxUbHIXF32C0Od_Hi-5" value="dirigir" style="rhombus;whiteSpace=wrap;html=1;" parent="1" vertex="1">
          <mxGeometry x="-460" y="350" width="80" height="60" as="geometry" />
        </mxCell>
        <mxCell id="NIufxUbHIXF32C0Od_Hi-6" value="actuar" style="rhombus;whiteSpace=wrap;html=1;" parent="1" vertex="1">
          <mxGeometry x="-720" y="520" width="80" height="60" as="geometry" />
        </mxCell>
        <mxCell id="NIufxUbHIXF32C0Od_Hi-7" value="" style="endArrow=none;html=1;rounded=0;fontSize=12;startSize=8;endSize=8;curved=1;exitX=0.5;exitY=0;exitDx=0;exitDy=0;entryX=0.5;entryY=1;entryDx=0;entryDy=0;" parent="1" source="NIufxUbHIXF32C0Od_Hi-6" target="NIufxUbHIXF32C0Od_Hi-1" edge="1">
          <mxGeometry width="50" height="50" relative="1" as="geometry">
            <mxPoint x="-620" y="430" as="sourcePoint" />
            <mxPoint x="-570" y="380" as="targetPoint" />
          </mxGeometry>
        </mxCell>
        <mxCell id="NIufxUbHIXF32C0Od_Hi-8" value="" style="endArrow=none;html=1;rounded=0;fontSize=12;startSize=8;endSize=8;curved=1;exitX=0.5;exitY=1;exitDx=0;exitDy=0;entryX=0.5;entryY=0;entryDx=0;entryDy=0;" parent="1" source="NIufxUbHIXF32C0Od_Hi-6" target="NIufxUbHIXF32C0Od_Hi-2" edge="1">
          <mxGeometry width="50" height="50" relative="1" as="geometry">
            <mxPoint x="-620" y="490" as="sourcePoint" />
            <mxPoint x="-570" y="440" as="targetPoint" />
          </mxGeometry>
        </mxCell>
        <mxCell id="NIufxUbHIXF32C0Od_Hi-9" value="" style="endArrow=none;html=1;rounded=0;fontSize=12;startSize=8;endSize=8;curved=1;entryX=0;entryY=0.5;entryDx=0;entryDy=0;exitX=1;exitY=0.5;exitDx=0;exitDy=0;" parent="1" source="NIufxUbHIXF32C0Od_Hi-1" target="NIufxUbHIXF32C0Od_Hi-5" edge="1">
          <mxGeometry width="50" height="50" relative="1" as="geometry">
            <mxPoint x="-640" y="430" as="sourcePoint" />
            <mxPoint x="-580" y="380" as="targetPoint" />
          </mxGeometry>
        </mxCell>
        <mxCell id="NIufxUbHIXF32C0Od_Hi-11" value="" style="ellipse;whiteSpace=wrap;html=1;aspect=fixed;fillColor=#000000;" parent="1" vertex="1">
          <mxGeometry x="-750" y="810" width="20" height="20" as="geometry" />
        </mxCell>
        <mxCell id="NIufxUbHIXF32C0Od_Hi-12" value="" style="ellipse;whiteSpace=wrap;html=1;aspect=fixed;" parent="1" vertex="1">
          <mxGeometry x="-630" y="810" width="20" height="20" as="geometry" />
        </mxCell>
        <mxCell id="NIufxUbHIXF32C0Od_Hi-14" value="" style="endArrow=none;html=1;rounded=0;fontSize=12;startSize=8;endSize=8;curved=1;entryX=0;entryY=1;entryDx=0;entryDy=0;exitX=0.5;exitY=0;exitDx=0;exitDy=0;" parent="1" source="NIufxUbHIXF32C0Od_Hi-11" target="NIufxUbHIXF32C0Od_Hi-2" edge="1">
          <mxGeometry width="50" height="50" relative="1" as="geometry">
            <mxPoint x="-620" y="640" as="sourcePoint" />
            <mxPoint x="-570" y="590" as="targetPoint" />
          </mxGeometry>
        </mxCell>
        <mxCell id="NIufxUbHIXF32C0Od_Hi-16" value="" style="ellipse;whiteSpace=wrap;html=1;aspect=fixed;" parent="1" vertex="1">
          <mxGeometry x="-800" y="540" width="20" height="20" as="geometry" />
        </mxCell>
        <mxCell id="NIufxUbHIXF32C0Od_Hi-17" value="" style="endArrow=none;html=1;rounded=0;fontSize=12;startSize=8;endSize=8;curved=1;exitX=0;exitY=0.5;exitDx=0;exitDy=0;entryX=1;entryY=0.5;entryDx=0;entryDy=0;" parent="1" source="NIufxUbHIXF32C0Od_Hi-6" target="NIufxUbHIXF32C0Od_Hi-16" edge="1">
          <mxGeometry width="50" height="50" relative="1" as="geometry">
            <mxPoint x="-740" y="550" as="sourcePoint" />
            <mxPoint x="-770" y="490" as="targetPoint" />
          </mxGeometry>
        </mxCell>
        <mxCell id="NIufxUbHIXF32C0Od_Hi-18" value="" style="ellipse;whiteSpace=wrap;html=1;aspect=fixed;" parent="1" vertex="1">
          <mxGeometry x="-660" y="270" width="20" height="20" as="geometry" />
        </mxCell>
        <mxCell id="NIufxUbHIXF32C0Od_Hi-19" value="" style="ellipse;whiteSpace=wrap;html=1;aspect=fixed;" parent="1" vertex="1">
          <mxGeometry x="-630" y="270" width="20" height="20" as="geometry" />
        </mxCell>
        <mxCell id="NIufxUbHIXF32C0Od_Hi-20" value="" style="ellipse;whiteSpace=wrap;html=1;aspect=fixed;" parent="1" vertex="1">
          <mxGeometry x="-800" y="370" width="20" height="20" as="geometry" />
        </mxCell>
        <mxCell id="NIufxUbHIXF32C0Od_Hi-21" value="" style="ellipse;whiteSpace=wrap;html=1;aspect=fixed;" parent="1" vertex="1">
          <mxGeometry x="-720" y="270" width="20" height="20" as="geometry" />
        </mxCell>
        <mxCell id="NIufxUbHIXF32C0Od_Hi-22" value="" style="ellipse;whiteSpace=wrap;html=1;aspect=fixed;fillColor=#000000;" parent="1" vertex="1">
          <mxGeometry x="-750" y="270" width="20" height="20" as="geometry" />
        </mxCell>
        <mxCell id="NIufxUbHIXF32C0Od_Hi-27" value="" style="endArrow=none;html=1;rounded=0;fontSize=12;startSize=8;endSize=8;curved=1;entryX=0.5;entryY=1;entryDx=0;entryDy=0;exitX=1;exitY=0;exitDx=0;exitDy=0;" parent="1" source="NIufxUbHIXF32C0Od_Hi-1" target="NIufxUbHIXF32C0Od_Hi-19" edge="1">
          <mxGeometry width="50" height="50" relative="1" as="geometry">
            <mxPoint x="-590" y="320" as="sourcePoint" />
            <mxPoint x="-570" y="370" as="targetPoint" />
          </mxGeometry>
        </mxCell>
        <mxCell id="NIufxUbHIXF32C0Od_Hi-28" value="" style="endArrow=none;html=1;rounded=0;fontSize=12;startSize=8;endSize=8;curved=1;entryX=0.75;entryY=0;entryDx=0;entryDy=0;exitX=0.5;exitY=1;exitDx=0;exitDy=0;" parent="1" source="NIufxUbHIXF32C0Od_Hi-18" target="NIufxUbHIXF32C0Od_Hi-1" edge="1">
          <mxGeometry width="50" height="50" relative="1" as="geometry">
            <mxPoint x="-620" y="420" as="sourcePoint" />
            <mxPoint x="-570" y="370" as="targetPoint" />
          </mxGeometry>
        </mxCell>
        <mxCell id="NIufxUbHIXF32C0Od_Hi-29" value="" style="endArrow=none;html=1;rounded=0;fontSize=12;startSize=8;endSize=8;curved=1;entryX=1;entryY=0.5;entryDx=0;entryDy=0;exitX=0;exitY=0.5;exitDx=0;exitDy=0;" parent="1" source="NIufxUbHIXF32C0Od_Hi-1" target="NIufxUbHIXF32C0Od_Hi-20" edge="1">
          <mxGeometry width="50" height="50" relative="1" as="geometry">
            <mxPoint x="-620" y="420" as="sourcePoint" />
            <mxPoint x="-570" y="370" as="targetPoint" />
          </mxGeometry>
        </mxCell>
        <mxCell id="NIufxUbHIXF32C0Od_Hi-31" value="" style="endArrow=none;html=1;rounded=0;fontSize=12;startSize=8;endSize=8;curved=1;entryX=0.5;entryY=1;entryDx=0;entryDy=0;exitX=0;exitY=0;exitDx=0;exitDy=0;" parent="1" source="NIufxUbHIXF32C0Od_Hi-1" target="NIufxUbHIXF32C0Od_Hi-22" edge="1">
          <mxGeometry width="50" height="50" relative="1" as="geometry">
            <mxPoint x="-620" y="420" as="sourcePoint" />
            <mxPoint x="-570" y="370" as="targetPoint" />
          </mxGeometry>
        </mxCell>
        <mxCell id="NIufxUbHIXF32C0Od_Hi-32" value="" style="ellipse;whiteSpace=wrap;html=1;aspect=fixed;" parent="1" vertex="1">
          <mxGeometry x="-800" y="340" width="20" height="20" as="geometry" />
        </mxCell>
        <mxCell id="NIufxUbHIXF32C0Od_Hi-33" value="" style="ellipse;whiteSpace=wrap;html=1;aspect=fixed;" parent="1" vertex="1">
          <mxGeometry x="-800" y="400" width="20" height="20" as="geometry" />
        </mxCell>
        <mxCell id="NIufxUbHIXF32C0Od_Hi-34" value="" style="endArrow=none;html=1;rounded=0;fontSize=12;startSize=8;endSize=8;curved=1;entryX=1;entryY=0.5;entryDx=0;entryDy=0;exitX=0;exitY=0;exitDx=0;exitDy=0;" parent="1" source="NIufxUbHIXF32C0Od_Hi-1" target="NIufxUbHIXF32C0Od_Hi-32" edge="1">
          <mxGeometry width="50" height="50" relative="1" as="geometry">
            <mxPoint x="-620" y="420" as="sourcePoint" />
            <mxPoint x="-570" y="370" as="targetPoint" />
          </mxGeometry>
        </mxCell>
        <mxCell id="NIufxUbHIXF32C0Od_Hi-37" style="edgeStyle=none;curved=1;rounded=0;orthogonalLoop=1;jettySize=auto;html=1;exitX=0.5;exitY=0;exitDx=0;exitDy=0;fontSize=12;startSize=8;endSize=8;" parent="1" source="NIufxUbHIXF32C0Od_Hi-19" target="NIufxUbHIXF32C0Od_Hi-19" edge="1">
          <mxGeometry relative="1" as="geometry" />
        </mxCell>
        <mxCell id="NIufxUbHIXF32C0Od_Hi-38" value="" style="ellipse;whiteSpace=wrap;html=1;aspect=fixed;fillColor=#000000;" parent="1" vertex="1">
          <mxGeometry x="-230" y="270" width="20" height="20" as="geometry" />
        </mxCell>
        <mxCell id="NIufxUbHIXF32C0Od_Hi-39" value="" style="ellipse;whiteSpace=wrap;html=1;aspect=fixed;" parent="1" vertex="1">
          <mxGeometry x="-110" y="270" width="20" height="20" as="geometry" />
        </mxCell>
        <mxCell id="NIufxUbHIXF32C0Od_Hi-43" value="" style="endArrow=none;html=1;rounded=0;fontSize=12;startSize=8;endSize=8;curved=1;entryX=0.5;entryY=1;entryDx=0;entryDy=0;exitX=0;exitY=0;exitDx=0;exitDy=0;" parent="1" source="NIufxUbHIXF32C0Od_Hi-4" target="NIufxUbHIXF32C0Od_Hi-38" edge="1">
          <mxGeometry width="50" height="50" relative="1" as="geometry">
            <mxPoint x="-420" y="420" as="sourcePoint" />
            <mxPoint x="-370" y="370" as="targetPoint" />
          </mxGeometry>
        </mxCell>
        <mxCell id="NIufxUbHIXF32C0Od_Hi-44" value="N:1" style="text;html=1;align=center;verticalAlign=middle;whiteSpace=wrap;rounded=0;fontSize=16;" parent="1" vertex="1">
          <mxGeometry x="-450" y="320" width="60" height="30" as="geometry" />
        </mxCell>
        <mxCell id="NIufxUbHIXF32C0Od_Hi-45" value="(1,n)" style="text;html=1;align=center;verticalAlign=middle;whiteSpace=wrap;rounded=0;fontSize=16;" parent="1" vertex="1">
          <mxGeometry x="-560" y="350" width="60" height="30" as="geometry" />
        </mxCell>
        <mxCell id="NIufxUbHIXF32C0Od_Hi-46" value="(1,1)" style="text;html=1;align=center;verticalAlign=middle;whiteSpace=wrap;rounded=0;fontSize=16;" parent="1" vertex="1">
          <mxGeometry x="-340" y="350" width="60" height="30" as="geometry" />
        </mxCell>
        <mxCell id="NIufxUbHIXF32C0Od_Hi-47" value="N:M" style="text;html=1;align=center;verticalAlign=middle;whiteSpace=wrap;rounded=0;fontSize=16;" parent="1" vertex="1">
          <mxGeometry x="-640" y="535" width="60" height="30" as="geometry" />
        </mxCell>
        <mxCell id="NIufxUbHIXF32C0Od_Hi-48" value="(1,n)" style="text;html=1;align=center;verticalAlign=middle;whiteSpace=wrap;rounded=0;fontSize=16;" parent="1" vertex="1">
          <mxGeometry x="-680" y="450" width="60" height="30" as="geometry" />
        </mxCell>
        <mxCell id="NIufxUbHIXF32C0Od_Hi-49" value="(1,n)" style="text;html=1;align=center;verticalAlign=middle;whiteSpace=wrap;rounded=0;fontSize=16;" parent="1" vertex="1">
          <mxGeometry x="-680" y="620" width="60" height="30" as="geometry" />
        </mxCell>
        <mxCell id="NIufxUbHIXF32C0Od_Hi-52" value="" style="ellipse;whiteSpace=wrap;html=1;aspect=fixed;fillColor=#ffffff;" parent="1" vertex="1">
          <mxGeometry x="-710" y="810" width="20" height="20" as="geometry" />
        </mxCell>
        <mxCell id="NIufxUbHIXF32C0Od_Hi-53" value="" style="endArrow=none;html=1;rounded=0;fontSize=12;startSize=8;endSize=8;curved=1;exitX=0.5;exitY=0;exitDx=0;exitDy=0;entryX=0.328;entryY=0.989;entryDx=0;entryDy=0;entryPerimeter=0;" parent="1" source="NIufxUbHIXF32C0Od_Hi-52" target="NIufxUbHIXF32C0Od_Hi-2" edge="1">
          <mxGeometry width="50" height="50" relative="1" as="geometry">
            <mxPoint x="-560" y="640" as="sourcePoint" />
            <mxPoint x="-700" y="760" as="targetPoint" />
          </mxGeometry>
        </mxCell>
        <mxCell id="NIufxUbHIXF32C0Od_Hi-54" value="NacionActor" style="text;html=1;align=center;verticalAlign=middle;whiteSpace=wrap;rounded=0;rotation=90;" parent="1" vertex="1">
          <mxGeometry x="-660" y="870" width="80" height="30" as="geometry" />
        </mxCell>
        <mxCell id="NIufxUbHIXF32C0Od_Hi-55" value="NombreActor" style="text;html=1;align=center;verticalAlign=middle;whiteSpace=wrap;rounded=0;rotation=90;" parent="1" vertex="1">
          <mxGeometry x="-750" y="870" width="100" height="30" as="geometry" />
        </mxCell>
        <mxCell id="NIufxUbHIXF32C0Od_Hi-56" value="IdActor" style="text;html=1;align=center;verticalAlign=middle;whiteSpace=wrap;rounded=0;rotation=90;" parent="1" vertex="1">
          <mxGeometry x="-770" y="850" width="60" height="30" as="geometry" />
        </mxCell>
        <mxCell id="NIufxUbHIXF32C0Od_Hi-57" value="Personaje" style="text;html=1;align=center;verticalAlign=middle;whiteSpace=wrap;rounded=0;rotation=0;" parent="1" vertex="1">
          <mxGeometry x="-860" y="535" width="60" height="30" as="geometry" />
        </mxCell>
        <mxCell id="NIufxUbHIXF32C0Od_Hi-58" value="" style="ellipse;whiteSpace=wrap;html=1;aspect=fixed;" parent="1" vertex="1">
          <mxGeometry x="-690" y="270" width="20" height="20" as="geometry" />
        </mxCell>
        <mxCell id="NIufxUbHIXF32C0Od_Hi-60" value="Color" style="text;html=1;align=center;verticalAlign=middle;whiteSpace=wrap;rounded=0;rotation=0;" parent="1" vertex="1">
          <mxGeometry x="-860" y="335" width="60" height="30" as="geometry" />
        </mxCell>
        <mxCell id="NIufxUbHIXF32C0Od_Hi-61" value="Resumen" style="text;html=1;align=center;verticalAlign=middle;whiteSpace=wrap;rounded=0;rotation=0;" parent="1" vertex="1">
          <mxGeometry x="-860" y="365" width="60" height="30" as="geometry" />
        </mxCell>
        <mxCell id="NIufxUbHIXF32C0Od_Hi-62" value="Observ" style="text;html=1;align=center;verticalAlign=middle;whiteSpace=wrap;rounded=0;rotation=0;" parent="1" vertex="1">
          <mxGeometry x="-860" y="395" width="60" height="30" as="geometry" />
        </mxCell>
        <mxCell id="NIufxUbHIXF32C0Od_Hi-63" value="IdPelicula" style="text;html=1;align=center;verticalAlign=middle;whiteSpace=wrap;rounded=0;rotation=-90;" parent="1" vertex="1">
          <mxGeometry x="-770" y="220" width="60" height="30" as="geometry" />
        </mxCell>
        <mxCell id="NIufxUbHIXF32C0Od_Hi-64" value="Idioma" style="text;html=1;align=center;verticalAlign=middle;whiteSpace=wrap;rounded=0;rotation=-90;" parent="1" vertex="1">
          <mxGeometry x="-740" y="220" width="60" height="30" as="geometry" />
        </mxCell>
        <mxCell id="NIufxUbHIXF32C0Od_Hi-65" value="NacionPelicula" style="text;html=1;align=center;verticalAlign=middle;whiteSpace=wrap;rounded=0;rotation=-90;" parent="1" vertex="1">
          <mxGeometry x="-730" y="200" width="100" height="30" as="geometry" />
        </mxCell>
        <mxCell id="NIufxUbHIXF32C0Od_Hi-66" value="Ano" style="text;html=1;align=center;verticalAlign=middle;whiteSpace=wrap;rounded=0;rotation=90;" parent="1" vertex="1">
          <mxGeometry x="-770" y="460" width="60" height="30" as="geometry" />
        </mxCell>
        <mxCell id="NIufxUbHIXF32C0Od_Hi-67" value="Titulo" style="text;html=1;align=center;verticalAlign=middle;whiteSpace=wrap;rounded=0;rotation=-90;" parent="1" vertex="1">
          <mxGeometry x="-650" y="220" width="60" height="30" as="geometry" />
        </mxCell>
        <mxCell id="NIufxUbHIXF32C0Od_Hi-69" value="" style="ellipse;whiteSpace=wrap;html=1;aspect=fixed;" parent="1" vertex="1">
          <mxGeometry x="-190" y="270" width="20" height="20" as="geometry" />
        </mxCell>
        <mxCell id="NIufxUbHIXF32C0Od_Hi-70" value="" style="ellipse;whiteSpace=wrap;html=1;aspect=fixed;" parent="1" vertex="1">
          <mxGeometry x="-150" y="270" width="20" height="20" as="geometry" />
        </mxCell>
        <mxCell id="NIufxUbHIXF32C0Od_Hi-71" value="" style="endArrow=none;html=1;rounded=0;entryX=0.5;entryY=1;entryDx=0;entryDy=0;exitX=0.333;exitY=0;exitDx=0;exitDy=0;exitPerimeter=0;" parent="1" source="NIufxUbHIXF32C0Od_Hi-4" target="NIufxUbHIXF32C0Od_Hi-69" edge="1">
          <mxGeometry width="50" height="50" relative="1" as="geometry">
            <mxPoint x="-190" y="330" as="sourcePoint" />
            <mxPoint x="-150" y="420" as="targetPoint" />
          </mxGeometry>
        </mxCell>
        <mxCell id="NIufxUbHIXF32C0Od_Hi-72" value="" style="endArrow=none;html=1;rounded=0;entryX=0.5;entryY=1;entryDx=0;entryDy=0;exitX=0.672;exitY=-0.016;exitDx=0;exitDy=0;exitPerimeter=0;" parent="1" source="NIufxUbHIXF32C0Od_Hi-4" target="NIufxUbHIXF32C0Od_Hi-70" edge="1">
          <mxGeometry width="50" height="50" relative="1" as="geometry">
            <mxPoint x="-140" y="310" as="sourcePoint" />
            <mxPoint x="-150" y="420" as="targetPoint" />
          </mxGeometry>
        </mxCell>
        <mxCell id="NIufxUbHIXF32C0Od_Hi-77" value="IdDirector" style="text;html=1;align=center;verticalAlign=middle;whiteSpace=wrap;rounded=0;rotation=-90;" parent="1" vertex="1">
          <mxGeometry x="-250" y="210" width="60" height="30" as="geometry" />
        </mxCell>
        <mxCell id="NIufxUbHIXF32C0Od_Hi-78" value="NombreDirector" style="text;html=1;align=center;verticalAlign=middle;whiteSpace=wrap;rounded=0;rotation=-90;" parent="1" vertex="1">
          <mxGeometry x="-210" y="200" width="60" height="30" as="geometry" />
        </mxCell>
        <mxCell id="NIufxUbHIXF32C0Od_Hi-79" value="FNacDirector" style="text;html=1;align=center;verticalAlign=middle;whiteSpace=wrap;rounded=0;rotation=-90;" parent="1" vertex="1">
          <mxGeometry x="-185" y="200" width="90" height="30" as="geometry" />
        </mxCell>
        <mxCell id="NIufxUbHIXF32C0Od_Hi-80" value="NacionDirector" style="text;html=1;align=center;verticalAlign=middle;whiteSpace=wrap;rounded=0;rotation=-90;" parent="1" vertex="1">
          <mxGeometry x="-150" y="200" width="100" height="30" as="geometry" />
        </mxCell>
        <mxCell id="NIufxUbHIXF32C0Od_Hi-81" value="" style="endArrow=classic;html=1;rounded=0;entryX=0.5;entryY=1;entryDx=0;entryDy=0;exitX=1;exitY=0;exitDx=0;exitDy=0;" parent="1" source="NIufxUbHIXF32C0Od_Hi-4" target="NIufxUbHIXF32C0Od_Hi-39" edge="1">
          <mxGeometry width="50" height="50" relative="1" as="geometry">
            <mxPoint x="-320" y="500" as="sourcePoint" />
            <mxPoint x="-270" y="450" as="targetPoint" />
          </mxGeometry>
        </mxCell>
        <mxCell id="NIufxUbHIXF32C0Od_Hi-82" value="" style="endArrow=classic;html=1;rounded=0;entryX=0.5;entryY=0;entryDx=0;entryDy=0;exitX=1;exitY=1;exitDx=0;exitDy=0;" parent="1" source="NIufxUbHIXF32C0Od_Hi-2" target="NIufxUbHIXF32C0Od_Hi-12" edge="1">
          <mxGeometry width="50" height="50" relative="1" as="geometry">
            <mxPoint x="-600" y="760" as="sourcePoint" />
            <mxPoint x="-580" y="600" as="targetPoint" />
          </mxGeometry>
        </mxCell>
        <mxCell id="NIufxUbHIXF32C0Od_Hi-83" value="" style="endArrow=classic;html=1;rounded=0;entryX=0.5;entryY=1;entryDx=0;entryDy=0;exitX=0.5;exitY=0;exitDx=0;exitDy=0;" parent="1" source="NIufxUbHIXF32C0Od_Hi-1" target="NIufxUbHIXF32C0Od_Hi-58" edge="1">
          <mxGeometry width="50" height="50" relative="1" as="geometry">
            <mxPoint x="-610" y="640" as="sourcePoint" />
            <mxPoint x="-610" y="710" as="targetPoint" />
          </mxGeometry>
        </mxCell>
        <mxCell id="NIufxUbHIXF32C0Od_Hi-84" value="" style="endArrow=classic;html=1;rounded=0;entryX=0.5;entryY=1;entryDx=0;entryDy=0;exitX=0.25;exitY=0;exitDx=0;exitDy=0;" parent="1" source="NIufxUbHIXF32C0Od_Hi-1" target="NIufxUbHIXF32C0Od_Hi-21" edge="1">
          <mxGeometry width="50" height="50" relative="1" as="geometry">
            <mxPoint x="-670" y="360" as="sourcePoint" />
            <mxPoint x="-670" y="300" as="targetPoint" />
          </mxGeometry>
        </mxCell>
        <mxCell id="NIufxUbHIXF32C0Od_Hi-88" value="" style="endArrow=classic;html=1;rounded=0;entryX=0;entryY=0.5;entryDx=0;entryDy=0;exitX=1;exitY=0.5;exitDx=0;exitDy=0;" parent="1" source="NIufxUbHIXF32C0Od_Hi-5" target="NIufxUbHIXF32C0Od_Hi-4" edge="1">
          <mxGeometry width="50" height="50" relative="1" as="geometry">
            <mxPoint x="-460" y="500" as="sourcePoint" />
            <mxPoint x="-410" y="450" as="targetPoint" />
          </mxGeometry>
        </mxCell>
        <mxCell id="NIufxUbHIXF32C0Od_Hi-94" value="" style="endArrow=none;html=1;rounded=0;fontSize=12;startSize=8;endSize=8;curved=1;entryX=0;entryY=1;entryDx=0;entryDy=0;exitX=0.5;exitY=0;exitDx=0;exitDy=0;" parent="1" source="NIufxUbHIXF32C0Od_Hi-96" target="NIufxUbHIXF32C0Od_Hi-1" edge="1">
          <mxGeometry width="50" height="50" relative="1" as="geometry">
            <mxPoint x="-740" y="450" as="sourcePoint" />
            <mxPoint x="-730" y="420" as="targetPoint" />
          </mxGeometry>
        </mxCell>
        <mxCell id="NIufxUbHIXF32C0Od_Hi-96" value="" style="ellipse;whiteSpace=wrap;html=1;aspect=fixed;" parent="1" vertex="1">
          <mxGeometry x="-750" y="440" width="20" height="20" as="geometry" />
        </mxCell>
        <mxCell id="NIufxUbHIXF32C0Od_Hi-99" value="Restriccion" style="text;html=1;align=center;verticalAlign=middle;whiteSpace=wrap;rounded=0;rotation=-90;" parent="1" vertex="1">
          <mxGeometry x="-680" y="210" width="60" height="30" as="geometry" />
        </mxCell>
        <mxCell id="_OvDkZXyoP7VZW5bc4eK-1" value="" style="endArrow=none;dashed=1;html=1;rounded=0;entryX=1;entryY=0.5;entryDx=0;entryDy=0;exitX=0;exitY=1;exitDx=0;exitDy=0;" parent="1" source="NIufxUbHIXF32C0Od_Hi-1" target="NIufxUbHIXF32C0Od_Hi-33" edge="1">
          <mxGeometry width="50" height="50" relative="1" as="geometry">
            <mxPoint x="-550" y="590" as="sourcePoint" />
            <mxPoint x="-500" y="540" as="targetPoint" />
          </mxGeometry>
        </mxCell>
        <mxCell id="g2p-Cyyki9JGb1qTQNdC-1" value="" style="ellipse;whiteSpace=wrap;html=1;aspect=fixed;fillColor=#ffffff;" vertex="1" parent="1">
          <mxGeometry x="-670" y="810" width="20" height="20" as="geometry" />
        </mxCell>
        <mxCell id="g2p-Cyyki9JGb1qTQNdC-2" value="" style="endArrow=none;html=1;rounded=0;fontSize=12;startSize=8;endSize=8;curved=1;entryX=0.328;entryY=0.989;entryDx=0;entryDy=0;entryPerimeter=0;exitX=0.5;exitY=0;exitDx=0;exitDy=0;" edge="1" parent="1" source="g2p-Cyyki9JGb1qTQNdC-1">
          <mxGeometry width="50" height="50" relative="1" as="geometry">
            <mxPoint x="-661" y="790" as="sourcePoint" />
            <mxPoint x="-661" y="750" as="targetPoint" />
          </mxGeometry>
        </mxCell>
        <mxCell id="g2p-Cyyki9JGb1qTQNdC-3" value="FNacActor" style="text;html=1;align=center;verticalAlign=middle;whiteSpace=wrap;rounded=0;rotation=90;" vertex="1" parent="1">
          <mxGeometry x="-710" y="870" width="100" height="30" as="geometry" />
        </mxCell>
      </root>
    </mxGraphModel>
  </diagram>
</mxfile>
